<svg xmlns="http://www.w3.org/2000/svg" viewBox="-31 0 512 512"><path fill="#87ddfd" d="M14.003906 293.773438c-9.160156 15.863281-14.003906 33.980468-14.003906 52.390624 0 57.839844 47.058594 104.894532 104.898438 104.894532 57.839843 0 104.894531-47.054688 104.894531-104.894532 0-18.410156-4.839844-36.527343-14-52.390624l-90.894531-146.925782c-.289063.472656 6.351562-10.261718-90.894532 146.925782zm165.820313 52.390624c0 41.3125-33.609375 74.925782-74.925781 74.925782-41.316407 0-74.925782-33.613282-74.925782-74.925782 0-13.082031 3.414063-25.945312 9.878906-37.21875l65.046876-105.132812 65.046874 105.132812c6.464844 11.273438 9.878907 24.136719 9.878907 37.21875zm0 0M435.558594 353.710938l-90.894532-146.921876c-.292968.46875 6.347657-10.261718-90.894531 146.921876-9.160156 15.867187-14.003906 33.984374-14.003906 52.394531 0 58.390625 47.058594 105.894531 104.898437 105.894531 57.839844 0 104.898438-47.503906 104.898438-105.894531 0-18.410157-4.84375-36.523438-14.003906-52.394531zm-90.894532 128.320312c-41.316406 0-74.925781-34.0625-74.925781-75.925781 0-13.082031 3.414063-25.949219 9.878907-37.21875l65.046874-105.136719 65.046876 105.136719c6.464843 11.269531 9.878906 24.136719 9.878906 37.21875 0 41.863281-33.613282 75.925781-74.925782 75.925781zm0 0M254.753906 0c-.800781 1.328125 4.792969-7.96875-64.9375 107.957031-6.535156 11.296875-9.992187 24.230469-9.992187 37.402344 0 41.3125 33.613281 74.925781 74.925781 74.925781 41.316406 0 74.929688-33.613281 74.929688-74.925781 0-13.179687-3.460938-26.121094-10.011719-37.425781zm-.003906 190.316406c-24.785156 0-44.953125-20.167968-44.953125-44.957031 0-7.871094 2.039063-15.578125 5.902344-22.292969l39.050781-64.921875 39.042969 64.910157c3.871093 6.722656 5.914062 14.433593 5.914062 22.304687 0 24.789063-20.167969 44.957031-44.957031 44.957031zm0 0" class="color000000 svgShape"/></svg>