<svg xmlns="http://www.w3.org/2000/svg" enable-background="new 0 0 74 74" version="1.0" viewBox="0 0 74 74"><path fill="#696969" d="M28.19 69c-2.31 0-4.58-.87-6.17-2.52-2.74-2.85-2.81-7.74-.15-10.46 1.37-1.4 3.44-2.12 5.56-1.93 2.02.19 3.76 1.17 4.77 2.71.38.57.22 1.33-.34 1.71-.57.38-1.33.22-1.71-.35-.6-.91-1.68-1.5-2.95-1.62-1.38-.13-2.71.32-3.56 1.19-1.74 1.79-1.66 5.14.16 7.04 1.8 1.87 5.01 2.31 7.47 1.01 2.38-1.26 3.99-3.96 4.11-6.88.16-4.02-2.67-8.11-6.59-9.5-2.37-.85-4.91-.82-8-.72-4.83.17-9.7.41-14.49.72C5.63 49.43 5.04 48.92 5 48.24c-.04-.68.47-1.26 1.15-1.31 4.81-.3 9.71-.54 14.55-.72 2.63-.1 5.91-.21 8.91.86 4.97 1.77 8.43 6.79 8.23 11.93-.15 3.78-2.28 7.3-5.42 8.96C31.1 68.66 29.64 69 28.19 69zM14.62 43.4c-2.82 0-5.63-.03-8.41-.08C5.53 43.3 4.99 42.74 5 42.05c.01-.68.58-1.21 1.26-1.21 4.79.1 9.68.11 14.52.04 2.38-.03 4.33-.12 6.1-.85 2.89-1.2 4.87-4.38 4.59-7.39-.2-2.18-1.5-4.13-3.32-4.98-1.86-.86-4.21-.43-5.46 1.01-1.26 1.45-1.19 3.88.13 5.11.64.59 1.61.86 2.6.72.9-.13 1.65-.59 2.04-1.24.35-.59 1.1-.78 1.69-.43.59.35.78 1.1.43 1.69-.77 1.3-2.16 2.19-3.81 2.43-1.72.24-3.45-.26-4.63-1.35-2.28-2.12-2.43-6.1-.31-8.53 1.98-2.28 5.49-2.97 8.36-1.63 2.6 1.21 4.46 3.95 4.73 6.99.37 4.11-2.2 8.27-6.1 9.89-2.34.97-4.93 1.01-7.01 1.04C18.75 43.38 16.68 43.4 14.62 43.4z"/><path fill="#e6dbd7" d="M15.94 56.61H6.23C5.55 56.61 5 56.06 5 55.38s.55-1.23 1.23-1.23h9.71c.68 0 1.23.55 1.23 1.23S16.62 56.61 15.94 56.61zM58.06 68.98h-9.71c-.68 0-1.23-.55-1.23-1.23s.55-1.23 1.23-1.23h9.71c.68 0 1.23.55 1.23 1.23S58.74 68.98 58.06 68.98zM46.26 45.91h-9.71c-.68 0-1.23-.55-1.23-1.23s.55-1.23 1.23-1.23h9.71c.68 0 1.23.55 1.23 1.23S46.95 45.91 46.26 45.91zM67.77 25.11h-9.71c-.68 0-1.23-.55-1.23-1.23s.55-1.23 1.23-1.23h9.71c.68 0 1.23.55 1.23 1.23S68.45 25.11 67.77 25.11z"/><path d="M23 64.09c-1.83-1.9-1.91-5.25-.17-7.04.85-.87 2.19-1.32 3.57-1.19 1.11.1 2.07.57 2.69 1.29-.53-.33-1.18-.54-1.88-.61-1.38-.13-2.72.32-3.57 1.19-1.74 1.79-1.66 5.14.17 7.04C23.52 64.58 23.25 64.35 23 64.09zM20.79 48.68c-4.82.17-9.7.41-14.48.71-.53.03-1-.27-1.2-.73.12.04.25.06.39.05 4.78-.3 9.66-.54 14.48-.71 3.09-.11 5.63-.13 8 .71 1.25.45 2.39 1.17 3.36 2.07-.77-.59-1.63-1.06-2.55-1.39C26.42 48.55 23.88 48.57 20.79 48.68z" opacity=".1"/><path d="M37.84 59c-.15 3.78-2.28 7.3-5.42 8.96C31.1 68.66 29.64 69 28.19 69c-2.23 0-4.42-.81-5.99-2.35 1.47 1.09 3.31 1.67 5.18 1.67 1.45 0 2.91-.34 4.23-1.04 3.14-1.66 5.27-5.18 5.42-8.96.14-3.54-1.44-7.01-4.06-9.41C36.07 51.31 38 55.12 37.84 59zM28.91 28.1c-.24-.17-.49-.31-.75-.43-1.86-.87-4.21-.43-5.46 1.01-1.16 1.34-1.2 3.52-.15 4.81-.2-.11-.37-.23-.53-.38-1.33-1.23-1.39-3.66-.13-5.11 1.25-1.44 3.6-1.88 5.46-1.02C27.92 27.25 28.45 27.63 28.91 28.1zM29.59 34.52c-.78 1.31-2.16 2.19-3.81 2.43-1.72.24-3.45-.26-4.63-1.35-.08-.07-.15-.14-.21-.22 1.13.77 2.58 1.09 4.03.89 1.65-.24 3.03-1.12 3.81-2.43.21-.36.22-.79.05-1.14.11.03.22.07.33.13C29.74 33.18 29.93 33.94 29.59 34.52z" opacity=".1"/><path d="M27.82 42.31c-2.34.97-4.93 1.01-7.01 1.04-2.06.03-4.13.05-6.19.05-2.82 0-5.63-.03-8.41-.09-.5-.01-.92-.3-1.11-.72.1.02.2.04.3.04 2.78.06 5.59.08 8.41.08 2.06 0 4.13-.01 6.19-.04 2.08-.03 4.67-.07 7.01-1.04 3.91-1.62 6.48-5.78 6.11-9.89-.2-2.16-1.19-4.17-2.68-5.57 1.94 1.4 3.26 3.72 3.49 6.25C34.3 36.53 31.73 40.69 27.82 42.31zM17.17 55.38c0 .68-.55 1.23-1.23 1.23H6.23c-.5 0-.93-.29-1.11-.72.1.03.2.04.3.04h9.71c.68 0 1.23-.55 1.23-1.23 0-.18-.04-.35-.12-.51C16.77 54.32 17.17 54.8 17.17 55.38zM59.29 67.75c0 .68-.55 1.23-1.23 1.23h-9.71c-.5 0-.93-.29-1.11-.72.1.03.2.04.3.04h9.71c.68 0 1.23-.55 1.23-1.23 0-.18-.04-.35-.12-.51C58.89 66.69 59.29 67.17 59.29 67.75zM47.5 44.68c0 .68-.56 1.23-1.24 1.23h-9.7c-.5 0-.93-.29-1.13-.72.1.03.21.04.32.04h9.7c.68 0 1.24-.55 1.24-1.23 0-.18-.04-.35-.11-.51C47.11 43.63 47.5 44.11 47.5 44.68zM69 23.87c0 .68-.55 1.24-1.24 1.24h-9.7c-.5 0-.93-.3-1.11-.73.1.03.2.04.3.04h9.7c.69 0 1.24-.55 1.24-1.23 0-.18-.04-.35-.11-.51C68.61 22.82 69 23.3 69 23.87zM29.09 57.15c.36.22.67.49.91.81-.26-.08-.5-.25-.66-.49C29.27 57.36 29.18 57.25 29.09 57.15z" opacity=".1"/><path fill="#add819" d="M53.56,33.14c-0.3,1.35-1.08,2.69-2.34,3.27l-0.01,0c-1.2,0.7-2.74,0.56-4.02,0.03
			c-2.64-1.1-4.45-3.75-4.98-6.56c-0.53-2.81,0.1-5.74,1.29-8.35c2.81,0.52,5.57,1.7,7.56,3.75C53.06,27.34,54.18,30.34,53.56,33.14
			z"/><path fill="#fff" d="M48.76,23.47c0.4,1.17,0.62,2.4,0.54,3.63c-0.04,0.63-0.16,1.26-0.03,1.87c0.12,0.54,0.42,1.03,0.67,1.52
			c0.62,1.23,0.86,2.81,0.04,3.91c-0.44,0.59-1.13,0.97-1.54,1.57c-0.16,0.23-0.26,0.49-0.32,0.76c-0.32-0.07-0.63-0.17-0.93-0.3
			c-2.64-1.1-4.45-3.75-4.98-6.56c-0.53-2.81,0.1-5.74,1.29-8.35C45.34,21.88,47.16,22.5,48.76,23.47z" opacity=".15"/><path fill="#fff" d="M44.53,31.6c0.26,0.65,0.87,1.11,1.23,1.71c0.43,0.71,0.5,1.6,0.37,2.42c-0.01,0.04-0.01,0.09-0.03,0.13
			c-2.05-1.29-3.44-3.58-3.89-5.98c-0.53-2.81,0.1-5.74,1.29-8.35c0.93,0.17,1.85,0.42,2.74,0.74c-0.36,2.27-0.87,4.51-1.52,6.71
			C44.47,29.84,44.2,30.77,44.53,31.6z" opacity=".15"/><path d="M53.13,33.04c-0.3,1.35-1.02,2.41-1.97,2.9c-0.04,0.02-0.17,0.08-0.17,0.08c-0.04,0.02-0.08,0.04-0.12,0.07
			c-0.9,0.47-2.1,0.47-3.32,0.02c1.02,0.26,1.99,0.2,2.75-0.2c0.04-0.02,0.08-0.04,0.12-0.07c0,0,0.13-0.06,0.17-0.08
			c0.95-0.49,1.66-1.55,1.97-2.9c0.56-2.51-0.36-5.36-2.38-7.44c-1.48-1.52-3.3-2.45-4.98-3.02c1.83,0.54,3.91,1.5,5.55,3.2
			C52.77,27.68,53.69,30.53,53.13,33.04z" opacity=".05"/><path fill="#98ba0d" d="M52.58,39.51c0,0-0.01,0-0.01,0.01c-0.11,0.05-0.24,0-0.29-0.11c-2.03-4.53-4.3-9.02-6.74-13.35
					c-0.06-0.11-0.02-0.24,0.08-0.3c0.09-0.05,0.24-0.02,0.3,0.08c2.45,4.34,4.73,8.84,6.76,13.38
					C52.72,39.33,52.68,39.45,52.58,39.51z"/><path fill="#98ba0d" d="M47.72 29.59c-.06.03-.14.03-.21 0-.11-.06-.15-.19-.09-.3.39-.73.67-1.48.83-2.24.03-.12.14-.2.26-.17.12.03.2.14.17.26-.17.8-.47 1.6-.88 2.36C47.79 29.54 47.76 29.57 47.72 29.59zM49.41 32.85c-.06.03-.13.03-.2 0-.11-.05-.16-.19-.1-.3.65-1.33 1.09-2.72 1.33-4.14.02-.12.13-.2.26-.18.12.02.2.14.18.26-.25 1.46-.71 2.89-1.37 4.26C49.49 32.8 49.45 32.83 49.41 32.85z"/><path fill="#98ba0d" d="M47.69 29.61c-.04.02-.08.03-.13.02-.86-.1-1.68-.32-2.44-.64-.11-.05-.17-.18-.12-.29.05-.11.18-.17.29-.12.72.31 1.5.51 2.31.61.12.01.21.13.19.25C47.8 29.51 47.75 29.57 47.69 29.61zM49.38 32.87c-.04.02-.09.03-.14.02-1.5-.25-2.94-.69-4.27-1.33-.11-.05-.16-.19-.1-.3.05-.11.19-.16.3-.1 1.29.62 2.69 1.05 4.15 1.29.12.02.2.13.18.26C49.49 32.78 49.44 32.83 49.38 32.87z"/><path fill="#fff" d="M53.48,29.58c-0.28-0.24-0.57-0.47-0.88-0.67c-0.84-0.54-1.83-0.9-2.82-0.81c-0.62,0.06-1.22,0.28-1.84,0.25
			c-0.75-0.05-1.42-0.46-2.08-0.8c-1.18-0.6-2.44-0.99-3.73-1.26c0.19-1.63,0.69-3.24,1.38-4.74c2.81,0.52,5.57,1.7,7.56,3.75
			C52.22,26.47,53.08,27.98,53.48,29.58z" opacity=".15"/><g><path fill="#ffbb04" d="M53.73,56.38c-0.33,1.39-0.22,2.98,0.69,4.09l0.01,0.01c0.8,1.19,2.29,1.76,3.72,1.85
			c2.95,0.17,5.82-1.46,7.58-3.83c1.76-2.37,2.51-5.37,2.58-8.32c-2.84-0.78-5.93-0.94-8.71,0.06
			C56.81,51.23,54.41,53.5,53.73,56.38z"/><path fill="#fff" d="M62.55,49.59c-0.9,0.91-1.66,1.94-2.14,3.12c-0.25,0.6-0.42,1.24-0.82,1.75c-0.36,0.45-0.86,0.76-1.31,1.11
			c-1.13,0.86-2.06,2.22-1.8,3.61c0.14,0.75,0.61,1.4,0.71,2.15c0.04,0.28,0.02,0.57-0.05,0.85c0.33,0.08,0.66,0.12,1,0.14
			c2.95,0.17,5.82-1.46,7.58-3.83c1.76-2.37,2.51-5.37,2.58-8.32C66.43,49.66,64.46,49.41,62.55,49.59z" opacity=".15"/><path fill="#fff" d="M62.79,59.03c-0.54,0.49-1.3,0.64-1.92,1.03c-0.72,0.47-1.19,1.26-1.44,2.08c-0.01,0.04-0.03,0.09-0.04,0.14
			c2.48-0.27,4.8-1.77,6.31-3.79c1.76-2.37,2.51-5.37,2.58-8.32c-0.94-0.26-1.9-0.45-2.88-0.55c-0.69,2.26-1.23,4.58-1.62,6.91
			C63.65,57.43,63.48,58.42,62.79,59.03z" opacity=".15"/><path d="M54.17,56.48c-0.33,1.39-0.14,2.7,0.51,3.58c0.03,0.04,0.12,0.15,0.12,0.15c0.02,0.04,0.05,0.08,0.08,0.11
			c0.63,0.84,1.74,1.39,3.07,1.52c-1.06-0.22-1.94-0.72-2.46-1.43c-0.03-0.04-0.05-0.08-0.08-0.11c0,0-0.09-0.11-0.12-0.15
			c-0.66-0.88-0.84-2.19-0.51-3.58c0.62-2.58,2.75-4.81,5.57-5.82c2.06-0.74,4.17-0.78,5.98-0.55c-1.94-0.32-4.3-0.38-6.59,0.46
			C56.92,51.68,54.79,53.91,54.17,56.48z" opacity=".05"/><path fill="#ea7d18" d="M51.76,62.73c0,0,0.01,0.01,0.01,0.01c0.08,0.1,0.23,0.11,0.32,0.03c3.93-3.28,8.06-6.42,12.28-9.33
					c0.1-0.07,0.13-0.21,0.06-0.32c-0.06-0.09-0.21-0.13-0.32-0.06c-4.23,2.91-8.38,6.06-12.32,9.35
					C51.71,62.5,51.69,62.63,51.76,62.73z"/><path fill="#ea7d18" d="M60.75 55.73c.04.06.11.1.19.09.13 0 .22-.11.22-.24-.03-.85.05-1.68.24-2.46.03-.12-.04-.25-.17-.28-.12-.03-.25.04-.28.17-.2.82-.29 1.69-.25 2.59C60.7 55.65 60.72 55.7 60.75 55.73zM57.7 57.99c.04.06.11.09.18.09.13 0 .23-.1.23-.23 0-1.53.22-3.02.63-4.44.04-.12-.03-.25-.16-.28-.12-.04-.25.03-.28.16-.43 1.46-.65 3-.65 4.57C57.66 57.9 57.68 57.95 57.7 57.99z"/><path fill="#ea7d18" d="M60.77 55.76c.03.04.06.06.11.08.85.29 1.7.46 2.55.51.13.01.23-.09.24-.22.01-.13-.09-.23-.22-.24-.8-.04-1.62-.2-2.42-.48-.12-.04-.25.02-.29.14C60.71 55.62 60.72 55.7 60.77 55.76zM57.72 58.02c.03.04.07.07.12.08 1.5.45 3.04.69 4.56.7.13 0 .23-.1.23-.23 0-.13-.1-.23-.23-.23-1.48-.01-2.97-.24-4.43-.68-.12-.04-.25.03-.29.15C57.67 57.89 57.68 57.96 57.72 58.02z"/><path fill="#fff" d="M55.41,53.11c0.37-0.1,0.74-0.17,1.12-0.22c1.02-0.12,2.1-0.01,2.98,0.53c0.55,0.33,1.01,0.81,1.6,1.06
			c0.72,0.3,1.52,0.21,2.29,0.2c1.37-0.03,2.71,0.18,4.03,0.51c0.56-1.6,0.82-3.32,0.86-5.02c-2.84-0.78-5.93-0.94-8.71,0.06
			C57.98,50.8,56.5,51.81,55.41,53.11z" opacity=".15"/></g><g><path fill="#ffbb04" d="M22.19,11.45c0.33-1.39,0.22-2.98-0.69-4.09L21.5,7.35c-0.8-1.19-2.29-1.76-3.72-1.85
			c-2.95-0.17-5.82,1.46-7.58,3.83C8.44,11.7,7.7,14.7,7.63,17.65c2.84,0.78,5.93,0.94,8.71-0.06
			C19.11,16.59,21.51,14.32,22.19,11.45z"/><path fill="#fff" d="M13.37,18.23c0.9-0.91,1.66-1.94,2.14-3.12c0.25-0.6,0.42-1.24,0.82-1.75c0.36-0.45,0.86-0.76,1.31-1.11
			c1.13-0.86,2.06-2.22,1.8-3.61c-0.14-0.75-0.61-1.4-0.71-2.15c-0.04-0.28-0.02-0.57,0.05-0.85c-0.33-0.08-0.66-0.12-1-0.14
			c-2.95-0.17-5.82,1.46-7.58,3.83C8.44,11.7,7.7,14.7,7.63,17.65C9.49,18.16,11.46,18.41,13.37,18.23z" opacity=".15"/><path fill="#fff" d="M13.13,8.79c0.54-0.49,1.3-0.64,1.92-1.03c0.72-0.47,1.19-1.26,1.44-2.08c0.01-0.04,0.03-0.09,0.04-0.14
			c-2.48,0.27-4.8,1.77-6.31,3.79C8.44,11.7,7.7,14.7,7.63,17.65c0.94,0.26,1.9,0.45,2.88,0.55c0.69-2.26,1.23-4.58,1.62-6.91
			C12.27,10.39,12.44,9.4,13.13,8.79z" opacity=".15"/><path d="M21.75,11.34c0.33-1.39,0.14-2.7-0.51-3.58c-0.03-0.04-0.12-0.15-0.12-0.15c-0.02-0.04-0.05-0.08-0.08-0.11
			c-0.63-0.84-1.74-1.39-3.07-1.52c1.06,0.22,1.94,0.72,2.46,1.43c0.03,0.04,0.05,0.08,0.08,0.11c0,0,0.09,0.12,0.12,0.15
			c0.66,0.88,0.84,2.19,0.51,3.58c-0.62,2.58-2.75,4.81-5.57,5.82c-2.06,0.74-4.17,0.78-5.98,0.55c1.94,0.32,4.3,0.38,6.59-0.46
			C19,16.15,21.13,13.92,21.75,11.34z" opacity=".05"/><path fill="#ea7d18" d="M24.16,5.09c0,0-0.01-0.01-0.01-0.01c-0.08-0.1-0.23-0.11-0.32-0.03c-3.93,3.28-8.06,6.42-12.28,9.33
					c-0.1,0.07-0.13,0.21-0.06,0.32c0.06,0.09,0.21,0.13,0.32,0.06c4.23-2.91,8.38-6.06,12.32-9.35
					C24.22,5.33,24.23,5.19,24.16,5.09z"/><path fill="#ea7d18" d="M15.17 12.09c-.04-.06-.11-.1-.19-.09-.13 0-.22.11-.22.24.03.85-.05 1.68-.24 2.46-.03.12.04.25.17.28.12.03.25-.04.28-.17.2-.82.29-1.69.25-2.59C15.22 12.17 15.2 12.12 15.17 12.09zM18.22 9.83c-.04-.06-.11-.09-.18-.09-.13 0-.23.1-.23.23 0 1.53-.22 3.02-.63 4.44-.04.12.03.25.16.28.12.04.25-.03.28-.16.43-1.46.65-3 .65-4.57C18.26 9.92 18.24 9.87 18.22 9.83z"/><path fill="#ea7d18" d="M15.16 12.06c-.03-.04-.06-.06-.11-.08-.85-.29-1.7-.46-2.55-.51-.13-.01-.23.09-.24.22-.01.13.09.23.22.24.8.04 1.62.2 2.42.48.12.04.25-.02.29-.14C15.21 12.2 15.2 12.12 15.16 12.06zM18.2 9.81c-.03-.04-.07-.07-.12-.08-1.5-.45-3.04-.69-4.56-.7-.13 0-.23.1-.23.23 0 .13.1.23.23.23 1.48.01 2.97.24 4.43.68.12.04.25-.03.29-.15C18.25 9.94 18.24 9.86 18.2 9.81z"/><path fill="#fff" d="M20.51,14.71c-0.37,0.1-0.74,0.17-1.12,0.22c-1.02,0.12-2.1,0.01-2.98-0.53c-0.55-0.33-1.01-0.81-1.6-1.06
			c-0.72-0.3-1.52-0.21-2.29-0.2c-1.37,0.03-2.71-0.18-4.03-0.51c-0.56,1.6-0.82,3.32-0.86,5.02c2.84,0.78,5.93,0.94,8.71-0.06
			C17.94,17.02,19.42,16.01,20.51,14.71z" opacity=".15"/></g><path fill="#ea7d18" d="M32.53 17.57c.39-.37.6-.92.55-1.45-.04-.53-.34-1.04-.78-1.34-.44-.3-1.02-.38-1.52-.22-.61.2-1.09.77-1.17 1.42-.03.28 0 .57.1.84.32.86 1.22 1.38 2.1 1.15C32.08 17.9 32.33 17.76 32.53 17.57zM52.43 13.75c.39-.37.6-.92.55-1.45s-.34-1.04-.78-1.34c-.44-.3-1.02-.38-1.52-.22-.61.2-1.09.77-1.17 1.42-.03.28 0 .57.1.84.32.86 1.22 1.38 2.1 1.15C51.99 14.08 52.23 13.94 52.43 13.75zM63.55 40.85c.39-.37.6-.92.55-1.45-.04-.53-.34-1.04-.78-1.34s-1.02-.38-1.52-.22c-.61.2-1.09.77-1.17 1.42-.03.28 0 .57.1.84.32.86 1.22 1.38 2.1 1.15C63.1 41.18 63.35 41.04 63.55 40.85zM46.38 59.54c.39-.37.6-.92.55-1.45s-.34-1.04-.78-1.34-1.02-.38-1.52-.22c-.61.2-1.09.77-1.17 1.42-.03.28 0 .57.1.84.32.86 1.22 1.38 2.1 1.15C45.94 59.87 46.18 59.73 46.38 59.54zM14.47 64.94c.39-.37.6-.92.55-1.45-.04-.53-.34-1.04-.78-1.34-.44-.3-1.02-.38-1.52-.22-.61.2-1.09.77-1.17 1.42-.03.28 0 .57.1.84.32.86 1.22 1.38 2.1 1.15C14.03 65.27 14.27 65.13 14.47 64.94z"/></svg>